<svg width="503" height="289" viewBox="0 0 503 289" fill="none" xmlns="http://www.w3.org/2000/svg">
<g id="Group">
<g id="sun">
<circle cx="250.5" cy="144.5" r="144.5" fill="#C4C4C4"/>
<circle cx="250.5" cy="144.5" r="144.5" fill="url(#paint0_radial)"/>
</g>
<g id="ellipse">
<path id="Vector" d="M500.446 43.229V43.225C491.087 20.635 456.665 11.995 400.915 18.194C381.031 20.409 359.286 24.437 336.357 30.079C336.342 30.083 336.326 30.087 336.311 30.09C299.478 39.156 259.585 52.395 219.4 69.041C180.798 85.029 142.578 104.112 109.111 124.315C37.917 167.293 -11.737 215.347 2.41499 249.518C9.81299 267.362 33.829 276.432 70.563 276.432C96.591 276.432 129.056 271.833 166.456 262.625C166.468 262.622 166.48 262.619 166.492 262.616C166.531 262.606 166.568 262.598 166.607 262.588C159.888 257.666 153.618 252.174 147.856 246.189C120.74 252.159 96.769 255.3 77.677 255.3C52.533 255.3 35.776 249.93 31.129 238.673C18.025 206.926 106.257 140.386 228.2 90.052C306.901 57.567 380.417 39.771 426.177 39.769C426.18 39.769 426.186 39.769 426.186 39.769C451.325 39.769 468.079 45.14 472.725 56.396C480.898 76.195 449.648 109.528 395.395 144.022C395.408 144.804 395.43 145.584 395.43 146.37C395.43 147.332 395.417 148.291 395.394 149.246C395.231 155.825 394.526 162.263 393.54 168.607C393.608 168.566 393.673 168.525 393.741 168.485C473.159 120.421 513.054 73.686 500.446 43.229Z" fill="#FB29FF"/>
<path id="Vector_2" d="M231.253 97.4471C99.0349 152.022 29.8909 214.706 38.5239 235.621C41.5869 243.043 55.8579 247.301 77.6769 247.301C95.6049 247.301 117.418 244.537 141.722 239.404C137.112 233.968 132.894 228.188 129.118 222.101C129.066 222.111 129.017 222.12 128.965 222.13C128.963 222.13 128.961 222.131 128.959 222.131C87.8759 230.109 70.0619 226.46 68.3289 222.261C67.2039 219.534 72.3599 206.05 109.579 180.652C142.001 158.519 187.618 134.839 238.009 113.964C288.4 93.0891 337.399 77.581 375.978 70.3C392.931 67.097 405.322 65.987 414.228 65.987C428.58 65.987 433.869 68.8781 434.564 70.5571C436.297 74.7371 426.293 89.91 391.615 113.321C391.584 113.342 391.554 113.363 391.523 113.384C393.183 120.337 394.337 127.484 394.941 134.789C446.04 101.533 470.691 72.4361 465.331 59.4491C462.268 52.0271 448 47.769 426.187 47.769V39.769L426.179 47.769C379.478 47.771 306.609 66.3431 231.253 97.4471Z" fill="#FB29FF"/>
<path id="Vector_3" d="M141.899 239.367C141.84 239.38 141.782 239.391 141.722 239.404C117.417 244.538 95.605 247.301 77.677 247.301C55.859 247.301 41.588 243.044 38.524 235.621C29.891 214.706 99.035 152.022 231.253 97.4471C306.609 66.3431 379.478 47.771 426.178 47.769L426.186 39.769C426.186 39.769 426.18 39.769 426.177 39.769C380.417 39.771 306.901 57.567 228.2 90.052C106.257 140.387 18.025 206.927 31.129 238.674C35.776 249.932 52.533 255.301 77.677 255.301C96.769 255.301 120.74 252.16 147.856 246.19C147.896 246.181 147.934 246.173 147.974 246.165C145.864 243.975 143.869 241.687 141.899 239.367Z" fill="#0AFF22" fill-opacity="0.94"/>
<path id="Vector_4" d="M465.33 59.449C470.691 72.436 446.039 101.533 394.94 134.789C394.925 134.799 394.911 134.808 394.896 134.818C395.148 137.867 395.309 140.942 395.36 144.045C395.372 144.038 395.383 144.03 395.395 144.023C449.648 109.529 480.897 76.196 472.725 56.397C468.079 45.141 451.325 39.77 426.186 39.77V47.77C447.999 47.769 462.267 52.026 465.33 59.449Z" fill="#0AFF22" fill-opacity="0.94"/>
<path id="Vector_5" d="M500.446 43.229V43.225C491.087 20.635 456.665 11.995 400.915 18.194C381.031 20.409 359.286 24.437 336.357 30.079C336.342 30.083 336.326 30.087 336.311 30.09C299.478 39.156 259.585 52.395 219.4 69.041C180.798 85.029 142.578 104.112 109.111 124.315C37.917 167.293 -11.737 215.347 2.41499 249.518C9.81299 267.362 33.829 276.432 70.563 276.432C96.591 276.432 129.056 271.833 166.456 262.625C166.468 262.622 166.48 262.619 166.492 262.616C166.531 262.606 166.568 262.598 166.607 262.588C159.888 257.666 153.618 252.174 147.856 246.189C120.74 252.159 96.769 255.3 77.677 255.3C52.533 255.3 35.776 249.93 31.129 238.673C18.025 206.926 106.257 140.386 228.2 90.052C306.901 57.567 380.417 39.771 426.177 39.769C426.18 39.769 426.186 39.769 426.186 39.769C451.325 39.769 468.079 45.14 472.725 56.396C480.898 76.195 449.648 109.528 395.395 144.022C395.408 144.804 395.43 145.584 395.43 146.37C395.43 147.332 395.417 148.291 395.394 149.246C395.231 155.825 394.526 162.263 393.54 168.607C393.608 168.566 393.673 168.525 393.741 168.485C473.159 120.421 513.054 73.686 500.446 43.229Z" fill="#FB29FF"/>
<path id="Vector_6" d="M231.253 97.447C99.0349 152.022 29.8909 214.706 38.5239 235.621C41.5869 243.043 55.8579 247.301 77.6769 247.301C95.6049 247.301 117.418 244.537 141.722 239.404C137.112 233.968 132.894 228.188 129.118 222.101C129.066 222.111 129.017 222.12 128.965 222.13C128.963 222.13 128.961 222.131 128.959 222.131C87.8759 230.109 70.0619 226.46 68.3289 222.261C67.2039 219.534 72.3599 206.05 109.579 180.652C142.001 158.519 187.618 134.839 238.009 113.964C288.4 93.089 337.399 77.581 375.978 70.3C392.931 67.097 405.322 65.987 414.228 65.987C428.58 65.987 433.869 68.878 434.564 70.557C436.297 74.737 426.293 89.91 391.615 113.321C391.584 113.342 391.554 113.363 391.523 113.384C393.183 120.337 394.337 127.484 394.941 134.789C446.04 101.533 470.691 72.436 465.331 59.449C462.268 52.027 448 47.769 426.187 47.769V39.769L426.179 47.769C379.478 47.771 306.609 66.343 231.253 97.447Z" fill="#FB29FF"/>
<path id="Vector_7" d="M141.899 239.367C141.84 239.38 141.782 239.391 141.722 239.404C117.417 244.538 95.605 247.301 77.677 247.301C55.859 247.301 41.588 243.044 38.524 235.621C29.891 214.706 99.035 152.022 231.253 97.447C306.609 66.343 379.478 47.771 426.178 47.769L426.186 39.769C426.186 39.769 426.18 39.769 426.177 39.769C380.417 39.771 306.901 57.567 228.2 90.052C106.257 140.387 18.025 206.927 31.129 238.674C35.776 249.932 52.533 255.301 77.677 255.301C96.769 255.301 120.74 252.16 147.856 246.19C147.896 246.181 147.934 246.173 147.974 246.165C145.864 243.975 143.869 241.687 141.899 239.367Z" fill="#0AFF22" fill-opacity="0.94"/>
<path id="Vector_8" d="M465.33 59.449C470.691 72.436 446.039 101.533 394.94 134.789C394.925 134.799 394.911 134.808 394.896 134.818C395.148 137.867 395.309 140.942 395.36 144.045C395.372 144.038 395.383 144.03 395.395 144.023C449.648 109.529 480.897 76.196 472.725 56.397C468.079 45.141 451.325 39.77 426.186 39.77V47.77C447.999 47.769 462.267 52.026 465.33 59.449Z" fill="#0AFF22" fill-opacity="0.94"/>
</g>
</g>
<defs>
<radialGradient id="paint0_radial" cx="0" cy="0" r="1" gradientUnits="userSpaceOnUse" gradientTransform="translate(250.5 144.5) rotate(90) scale(144.5)">
<stop stop-color="#FA00FF"/>
<stop offset="1" stop-color="#3300FF"/>
</radialGradient>
</defs>
</svg>
