<svg width="111" height="105" viewBox="0 0 111 105" fill="none" xmlns="http://www.w3.org/2000/svg">
<g id="noun_Starfish_3681267 2" clip-path="url(#clip0)">
<path id="star" d="M83.7381 72.5784C84.1406 72.2105 84.41 71.7189 84.5046 71.1801C84.5991 70.6413 84.5135 70.0854 84.261 69.5987C82.6264 65.4574 79.7401 61.2293 76.9475 57.1423C75.9131 55.6344 74.9385 54.2013 74.0582 52.8217C72.7043 50.6984 72.812 49.4168 74.4921 47.5187C78.1771 43.3625 83.7443 39.8062 89.2113 36.5817C89.6816 36.3666 90.0657 35.9993 90.3021 35.5384C90.5386 35.0775 90.6138 34.5496 90.5158 34.0392C90.3081 33.2636 89.5198 32.4249 87.9216 32.3944C81.3125 32.2743 73.3388 34.3101 67.915 35.8527C65.5167 36.5353 64.3115 36.0567 62.9581 33.8834C59.8752 28.8823 58.0091 23.2279 57.5116 17.3801C57.527 16.8891 57.3797 16.406 57.0927 16.0065C56.8057 15.6069 56.3953 15.3133 55.9255 15.1715C54.9171 14.9406 53.8712 15.5521 53.195 16.7686C50.2231 22.1155 50.0497 29.1688 49.8973 35.3916L49.8686 36.5184C49.7994 39.1497 49.0662 40.0213 46.4572 40.5745C41.0177 41.7249 34.4122 40.8475 28.584 40.0724C27.9375 39.9865 27.3037 39.9024 26.6825 39.82C25.1156 39.6183 24.2545 40.3271 23.9706 41.0581C23.8677 41.3472 23.8315 41.6563 23.865 41.9621C23.8984 42.2679 24.0006 42.5625 24.1637 42.8236C24.4296 43.2636 24.7864 43.6416 25.2101 43.9319C30.8356 47.9803 39.015 51.5511 44.6798 53.8846C47.2882 54.9577 47.7984 55.8334 47.4092 58.5671C46.3757 65.8232 45.4747 73.448 46.7511 79.8753C47.0299 81.2778 47.8878 82.2229 48.9382 82.2825C49.7031 82.3255 50.6808 81.8558 51.1277 80.4077C52.6115 75.6071 55.3317 68.822 59.8607 63.7439C61.5758 61.8223 62.7506 61.5774 65.0947 62.6418C70.3037 65.0103 76.0089 68.9078 80.9047 72.4069C81.2932 72.7453 81.782 72.9457 82.2946 72.9767C82.8072 73.0078 83.3148 72.8677 83.7381 72.5784ZM54.4321 23.6669C54.3492 23.6762 54.2652 23.6676 54.1857 23.6418C54.1061 23.616 54.0329 23.5735 53.9709 23.5172C53.9088 23.4609 53.8594 23.3921 53.8258 23.3152C53.7923 23.2384 53.7753 23.1554 53.7762 23.0717C53.7801 22.895 53.8525 22.7271 53.978 22.6035C54.1035 22.48 54.2723 22.4106 54.4486 22.41C54.5303 22.4026 54.6126 22.4126 54.6903 22.4392C54.768 22.4657 54.8394 22.5084 54.8997 22.5644C54.9601 22.6204 55.0081 22.6884 55.0406 22.764C55.0731 22.8397 55.0894 22.9213 55.0885 23.0035C55.0853 23.1779 55.0154 23.344 54.8932 23.4675C54.771 23.591 54.6059 23.6624 54.4321 23.6669V23.6669ZM54.95 28.5933C54.834 28.6097 54.7158 28.6026 54.6023 28.5727C54.4888 28.5427 54.3822 28.4904 54.2889 28.4188C54.1956 28.3472 54.1173 28.2577 54.0587 28.1556C54 28.0535 53.9622 27.9408 53.9473 27.8241C53.9267 27.7108 53.9297 27.5945 53.9561 27.4826C53.9824 27.3706 54.0316 27.2655 54.1006 27.1738C54.1695 27.0821 54.2567 27.0058 54.3567 26.9497C54.4566 26.8936 54.5672 26.8589 54.6814 26.8477C54.9143 26.8181 55.1499 26.8821 55.3369 27.0257C55.5238 27.1694 55.6469 27.3811 55.6793 27.6146C55.6996 27.7277 55.6966 27.8437 55.6704 27.9553C55.6442 28.0669 55.5954 28.1719 55.5271 28.2636C55.4587 28.3554 55.3722 28.432 55.273 28.4887C55.1737 28.5454 55.0638 28.581 54.95 28.5933V28.5933ZM55.9986 33.4914C55.7067 33.5465 55.4044 33.4855 55.1555 33.3212C54.9067 33.1569 54.7308 32.9022 54.6653 32.6111C54.6275 32.4738 54.6196 32.33 54.642 32.1897C54.6645 32.0493 54.7167 31.9155 54.7953 31.7974C54.8739 31.6794 54.9769 31.5797 55.0974 31.5053C55.218 31.4308 55.3532 31.3832 55.4939 31.3658C55.7844 31.3161 56.0833 31.3801 56.3291 31.5448C56.5749 31.7094 56.7488 31.9621 56.8148 32.2507C56.8519 32.3868 56.8597 32.5292 56.8377 32.6683C56.8157 32.8073 56.7643 32.94 56.6871 33.0574C56.6099 33.1747 56.5086 33.2742 56.3898 33.349C56.2711 33.4238 56.1377 33.4723 55.9986 33.4914V33.4914ZM83.0103 36.0529C83.0444 36.1319 83.0614 36.2172 83.0602 36.303C83.0591 36.3889 83.0398 36.4735 83.0036 36.5512C82.9674 36.6289 82.9152 36.698 82.8504 36.7538C82.7856 36.8097 82.7097 36.851 82.6276 36.8752C82.4604 36.9397 82.2744 36.936 82.1093 36.8648C81.9442 36.7937 81.813 36.6607 81.7438 36.4944C81.7094 36.4145 81.6922 36.3284 81.6932 36.2415C81.6943 36.1547 81.7136 36.0692 81.7499 35.9905C81.7862 35.9119 81.8386 35.8418 81.9039 35.785C81.9691 35.7282 82.0456 35.6859 82.1284 35.6609C82.2967 35.5973 82.4835 35.6027 82.6485 35.6761C82.8135 35.7494 82.9435 35.8848 83.0103 36.0529V36.0529ZM78.686 37.6867C78.7386 37.7898 78.7694 37.9026 78.7763 38.0181C78.7832 38.1335 78.7661 38.249 78.7262 38.3573C78.6862 38.4655 78.6242 38.5641 78.5441 38.6469C78.4639 38.7296 78.3675 38.7947 78.2608 38.8379C78.0462 38.9359 77.8013 38.9447 77.5794 38.8625C77.3575 38.7803 77.1765 38.6137 77.0758 38.3989C77.0225 38.2958 76.9912 38.1828 76.9838 38.0671C76.9764 37.9514 76.9933 37.8355 77.0331 37.7269C77.073 37.6183 77.1351 37.5194 77.2154 37.4364C77.2957 37.3535 77.3925 37.2883 77.4996 37.2451C77.6058 37.1952 77.7211 37.167 77.8385 37.1622C77.956 37.1574 78.0733 37.1761 78.1837 37.2172C78.2941 37.2583 78.3954 37.321 78.4816 37.4016C78.5679 37.4822 78.6373 37.5791 78.686 37.6867V37.6867ZM74.5842 39.6769C74.7232 39.9369 74.7556 40.2406 74.6744 40.523C74.5931 40.8055 74.4048 41.0444 74.1496 41.1885C74.0293 41.2629 73.8947 41.3113 73.7545 41.3304C73.6142 41.3495 73.4714 41.3389 73.3351 41.2994C73.1988 41.2599 73.0722 41.1924 72.9632 41.101C72.8543 41.0097 72.7655 40.8966 72.7024 40.7691C72.5581 40.5084 72.522 40.2015 72.6022 39.9154C72.6824 39.6293 72.8724 39.3872 73.1306 39.2419C73.2521 39.1669 73.3881 39.1185 73.5298 39.0999C73.6714 39.0813 73.8156 39.0929 73.9528 39.134C74.0899 39.1751 74.2171 39.2446 74.3259 39.3382C74.4347 39.4317 74.5227 39.5472 74.5842 39.6769V39.6769ZM70.6928 42.0214C70.8731 42.3256 70.9265 42.6884 70.8412 43.0306C70.7559 43.3727 70.5389 43.6665 70.2376 43.8477C70.0916 43.9398 69.9282 44.0007 69.7574 44.0267C69.5866 44.0527 69.4121 44.0432 69.2448 43.9988C69.0775 43.9544 68.9209 43.876 68.7847 43.7685C68.6486 43.6611 68.5357 43.5268 68.4532 43.3741C68.3625 43.2236 68.3024 43.0567 68.2767 42.883C68.2509 42.7093 68.2599 42.5324 68.3031 42.3626C68.3463 42.1927 68.4229 42.0334 68.5284 41.894C68.6338 41.7545 68.7661 41.6376 68.9173 41.5502C69.0627 41.4584 69.2254 41.3976 69.3955 41.3717C69.5656 41.3458 69.7394 41.3553 69.906 41.3996C70.0726 41.4439 70.2285 41.5221 70.364 41.6293C70.4995 41.7365 70.6117 41.8704 70.6936 42.0227L70.6928 42.0214ZM66.7569 44.3175C66.8634 44.4902 66.9336 44.6828 66.9632 44.8833C66.9928 45.0839 66.9812 45.2882 66.9291 45.4837C66.8769 45.6791 66.7854 45.8616 66.6601 46.0199C66.5347 46.1782 66.3783 46.3089 66.2004 46.4039C66.0256 46.5077 65.8318 46.5754 65.6303 46.6031C65.4287 46.6307 65.2235 46.6179 65.0266 46.5652C64.8297 46.5125 64.6451 46.421 64.4834 46.2962C64.3218 46.1713 64.1864 46.0155 64.0852 45.8379C63.9791 45.6651 63.9092 45.4726 63.8799 45.2721C63.8505 45.0717 63.8622 44.8675 63.9143 44.6722C63.9664 44.4768 64.0578 44.2944 64.1829 44.1361C64.308 43.9778 64.4641 43.8469 64.6417 43.7515C64.8167 43.648 65.0106 43.5805 65.2122 43.553C65.4138 43.5255 65.619 43.5386 65.8159 43.5914C66.0128 43.6442 66.1975 43.7357 66.3592 43.8606C66.5209 43.9854 66.6563 44.1412 66.7576 44.3188L66.7569 44.3175ZM57.5712 40.2446C57.7657 40.1965 57.9682 40.189 58.1661 40.2227C58.364 40.2565 58.553 40.3307 58.7214 40.4407C58.8898 40.5508 59.034 40.6943 59.145 40.8624C59.256 41.0305 59.3314 41.2195 59.3665 41.4177C59.4106 41.6168 59.4152 41.8224 59.3799 42.0228C59.3447 42.2232 59.2702 42.4144 59.1609 42.5855C59.0516 42.7567 58.9095 42.9043 58.7429 43.0199C58.5763 43.1355 58.3884 43.2168 58.1899 43.2593C57.9957 43.3083 57.7933 43.3165 57.5953 43.2834C57.3974 43.2503 57.2082 43.1765 57.0396 43.0669C56.871 42.9572 56.7266 42.8138 56.6155 42.6459C56.5045 42.4779 56.429 42.2889 56.394 42.0908C56.3495 41.8914 56.3448 41.6854 56.3799 41.4845C56.4151 41.2837 56.4895 41.092 56.5989 40.9205C56.7083 40.749 56.8505 40.6009 57.0174 40.485C57.1842 40.369 57.3724 40.2873 57.5712 40.2446V40.2446ZM32.6735 45.068C32.4857 45.0226 32.3225 44.9057 32.2187 44.742C32.1149 44.5784 32.0787 44.3809 32.1176 44.1915C32.1486 44.1041 32.1974 44.0242 32.2608 43.9568C32.3242 43.8894 32.401 43.836 32.4862 43.7999C32.5714 43.7639 32.6633 43.746 32.7559 43.7474C32.8485 43.7488 32.94 43.7694 33.0245 43.808C33.21 43.8515 33.3714 43.9663 33.4739 44.1275C33.5765 44.2888 33.6121 44.4836 33.5729 44.6702C33.5436 44.7582 33.4963 44.8389 33.4341 44.9074C33.3718 44.9759 33.296 45.0306 33.2114 45.068C33.1269 45.1054 33.0354 45.1247 32.9427 45.1247C32.8501 45.1247 32.7584 45.1054 32.6735 45.068V45.068ZM37.9081 46.8759C37.6639 46.8262 37.4487 46.6819 37.3093 46.4744C37.17 46.2669 37.1177 46.013 37.1639 45.7679C37.1942 45.6512 37.2484 45.5423 37.3231 45.448C37.3978 45.3537 37.4913 45.2762 37.5977 45.2203C37.7041 45.1644 37.8211 45.1314 37.9411 45.1234C38.0612 45.1154 38.1817 45.1326 38.295 45.1738C38.5397 45.2243 38.7555 45.3685 38.8966 45.5757C39.0376 45.7829 39.0926 46.0367 39.05 46.2831C39.0185 46.4 38.9631 46.509 38.8874 46.6032C38.8117 46.6973 38.7173 46.7747 38.6102 46.8303C38.503 46.8859 38.3854 46.9186 38.2648 46.9263C38.1442 46.934 38.0231 46.9166 37.9093 46.8752L37.9081 46.8759ZM55.6397 37.3322C55.5935 37.1666 55.5821 36.9934 55.6062 36.8235C55.6303 36.6536 55.6895 36.4908 55.7799 36.3454C55.8702 36.2 55.9899 36.0752 56.1312 35.979C56.2725 35.8827 56.4324 35.8171 56.6007 35.7863C56.7698 35.7462 56.9453 35.7403 57.117 35.7689C57.2888 35.7974 57.4533 35.8598 57.6012 35.9525C57.749 36.0452 57.8771 36.1663 57.9782 36.3088C58.0792 36.4513 58.1511 36.6124 58.1898 36.7827C58.2467 37.1152 58.1738 37.4563 57.9862 37.7352C57.7986 38.014 57.5107 38.209 57.1824 38.2798C56.8541 38.3505 56.5106 38.2916 56.2233 38.1151C55.936 37.9386 55.727 37.6582 55.6397 37.3322V37.3322ZM42.6402 48.018C42.5002 48.0037 42.3647 47.9596 42.2428 47.8886C42.1209 47.8176 42.0154 47.7214 41.9335 47.6063C41.8515 47.4913 41.7949 47.3601 41.7674 47.2216C41.74 47.0831 41.7424 46.9405 41.7745 46.8033C41.8207 46.5152 41.9755 46.2564 42.2069 46.0803C42.4383 45.9042 42.7287 45.8242 43.0182 45.8568C43.158 45.8692 43.2937 45.9111 43.4165 45.9798C43.5393 46.0484 43.6463 46.1423 43.7305 46.2552C43.8148 46.368 43.8744 46.4974 43.9054 46.6347C43.9364 46.7721 43.9381 46.9143 43.9105 47.0521C43.8655 47.347 43.7081 47.6124 43.4715 47.7924C43.2348 47.9725 42.9373 48.0531 42.6415 48.0173L42.6402 48.018ZM47.4889 48.6734C47.3155 48.6638 47.1459 48.6181 46.9907 48.5392C46.8356 48.4603 46.6983 48.35 46.5877 48.2152C46.4771 48.0805 46.3956 47.9243 46.3483 47.7565C46.301 47.5888 46.289 47.4132 46.3131 47.2409C46.354 46.8837 46.5338 46.5579 46.8134 46.3341C47.0931 46.1103 47.45 46.0066 47.8068 46.0455C47.9816 46.0569 48.1524 46.1042 48.3086 46.1845C48.4648 46.2649 48.603 46.3764 48.7147 46.5124C48.8263 46.6483 48.909 46.8056 48.9576 46.9746C49.0063 47.1436 49.0198 47.3207 48.9973 47.4948C48.9534 47.8518 48.7701 48.1762 48.4877 48.3969C48.2053 48.6176 47.8466 48.7168 47.4902 48.6727L47.4889 48.6734ZM52.2417 49.447C51.9419 49.4141 51.6581 49.2928 51.4263 49.0985C51.1944 48.9042 51.0248 48.6456 50.939 48.3554C50.8531 48.0652 50.8548 47.7564 50.9439 47.4681C51.0329 47.1797 51.2053 46.9248 51.4393 46.7354C51.6733 46.546 51.9583 46.4306 52.2585 46.404C52.5586 46.3773 52.8603 46.4405 53.1254 46.5855C53.3906 46.7306 53.6073 46.951 53.7483 47.2189C53.8892 47.4868 53.948 47.7902 53.9172 48.0907C53.8988 48.2913 53.8406 48.486 53.746 48.6634C53.6514 48.8407 53.5223 48.9971 53.3663 49.1234C53.2103 49.2497 53.0306 49.3433 52.8377 49.3987C52.6448 49.4542 52.4426 49.4704 52.2429 49.4463L52.2417 49.447ZM58.4127 50.6668C57.9652 50.4793 57.5906 50.1502 57.3462 49.7299C57.2926 49.6371 57.246 49.5405 57.2067 49.4409C57.0999 49.1612 57.05 48.8633 57.06 48.5646C57.0699 48.2658 57.1395 47.9725 57.2646 47.7018C57.5031 47.1523 57.9494 46.7211 58.5058 46.5024C59.0623 46.2838 59.6835 46.2957 60.2335 46.5354C60.5092 46.6493 60.7592 46.818 60.9684 47.0315C61.1775 47.2449 61.3414 47.4986 61.4501 47.777C61.5589 48.0554 61.6101 48.3528 61.6008 48.6511C61.5915 48.9495 61.5218 49.2425 61.396 49.5124V49.5124C61.1529 50.0609 60.7033 50.4899 60.1448 50.706C59.5863 50.922 58.9642 50.9077 58.4139 50.6661L58.4127 50.6668ZM65.637 52.1347C65.7919 52.2672 65.9184 52.4297 66.0089 52.6124C66.0995 52.7952 66.1522 52.9942 66.1638 53.1976C66.1753 53.401 66.1456 53.6044 66.0764 53.7955C66.0071 53.9866 65.8998 54.1613 65.7609 54.3092C65.6244 54.4606 65.4591 54.583 65.2746 54.6694C65.0901 54.7557 64.8901 54.8043 64.6863 54.8123C64.4825 54.8203 64.279 54.7875 64.0876 54.7158C63.8961 54.6442 63.7207 54.5351 63.5714 54.3949C63.4165 54.2639 63.2899 54.1026 63.1993 53.921C63.1086 53.7393 63.056 53.5412 63.0445 53.3388C63.033 53.1363 63.0629 52.9339 63.1324 52.7439C63.2019 52.5539 63.3095 52.3804 63.4486 52.234C63.5839 52.0813 63.7484 51.9574 63.9324 51.8695C64.1164 51.7816 64.3162 51.7316 64.5202 51.7222C64.7241 51.7129 64.9281 51.7445 65.12 51.8152C65.312 51.8859 65.4882 51.9943 65.6383 52.1339L65.637 52.1347ZM55.8429 56.367C55.6558 56.2927 55.4857 56.1808 55.3432 56.0381C55.2006 55.8954 55.0886 55.7251 55.0141 55.5376C54.9396 55.3501 54.9042 55.1495 54.9101 54.9482C54.916 54.7468 54.963 54.549 55.0483 54.367C55.1279 54.1808 55.2436 54.0124 55.3888 53.8717C55.534 53.731 55.7057 53.6207 55.894 53.5472C56.0823 53.4737 56.2835 53.4385 56.4858 53.4437C56.6882 53.4488 56.8877 53.4942 57.0729 53.5771C57.2596 53.652 57.4292 53.7644 57.5713 53.9073C57.7133 54.0502 57.8249 54.2206 57.8991 54.408C57.9732 54.5955 58.0084 54.7959 58.0025 54.9971C57.9966 55.1983 57.9497 55.396 57.8646 55.5779C57.7855 55.7642 57.6701 55.9326 57.5252 56.0733C57.3803 56.2141 57.2088 56.3244 57.0206 56.3979C56.8325 56.4713 56.6315 56.5064 56.4293 56.5011C56.2271 56.4958 56.0277 56.4502 55.8429 56.367V56.367ZM54.045 60.5719C53.8817 60.5095 53.7328 60.414 53.6076 60.2915C53.4823 60.169 53.3835 60.0221 53.3171 59.8599C53.2508 59.6977 53.2183 59.5238 53.2219 59.3488C53.2254 59.1739 53.2648 59.0017 53.3377 58.843C53.4073 58.6813 53.508 58.5351 53.6342 58.4127C53.7603 58.2903 53.9094 58.1942 54.0729 58.1298C54.2364 58.0654 54.4111 58.0339 54.587 58.0373C54.7629 58.0407 54.9366 58.0788 55.0982 58.1494C55.2614 58.2138 55.41 58.3108 55.5348 58.4345C55.6597 58.5582 55.7582 58.7061 55.8243 58.869C55.8904 59.0319 55.9228 59.2064 55.9194 59.3819C55.916 59.5575 55.8769 59.7303 55.8046 59.8898C55.7349 60.0512 55.634 60.197 55.5077 60.3188C55.3813 60.4406 55.232 60.536 55.0684 60.5994C54.9048 60.6628 54.7301 60.6931 54.5545 60.6884C54.3788 60.6836 54.2056 60.6441 54.045 60.5719ZM52.0612 64.7096C51.9256 64.667 51.8007 64.5952 51.6953 64.4993C51.59 64.4035 51.5067 64.2857 51.4512 64.1544C51.3958 64.0231 51.3696 63.8814 51.3744 63.7391C51.3792 63.5969 51.415 63.4576 51.4792 63.3309C51.6045 63.0569 51.8298 62.8418 52.1089 62.7296C52.388 62.6174 52.6998 62.6167 52.9805 62.7275C53.1142 62.7735 53.2366 62.8478 53.3394 62.9453C53.4421 63.0428 53.5229 63.1613 53.576 63.2927C53.6292 63.4241 53.6536 63.5653 53.6475 63.7066C53.6414 63.848 53.605 63.9863 53.5408 64.112C53.4158 64.3808 53.1939 64.5918 52.9196 64.7027C52.6453 64.8137 52.3389 64.8163 52.0616 64.7102L52.0612 64.7096ZM67.204 55.6335C67.3168 55.5042 67.4545 55.399 67.6089 55.3243C67.7632 55.2495 67.9312 55.2067 68.1027 55.1984C68.2742 55.1901 68.4458 55.2164 68.6073 55.2758C68.7688 55.3352 68.9169 55.4265 69.0428 55.5443C69.1732 55.6572 69.2795 55.7954 69.3552 55.9504C69.4309 56.1055 69.4745 56.2742 69.4834 56.4464C69.4922 56.6185 69.466 56.7905 69.4065 56.9519C69.347 57.1133 69.2553 57.2606 69.1371 57.3851C69.0227 57.5141 68.8837 57.6189 68.7282 57.6934C68.5728 57.7679 68.404 57.8106 68.2317 57.819C68.0593 57.8274 67.8868 57.8013 67.7243 57.7424C67.5617 57.6834 67.4123 57.5927 67.2847 57.4754C67.1555 57.3614 67.0505 57.2223 66.9761 57.0667C66.9018 56.9111 66.8596 56.7422 66.8521 56.5701C66.8446 56.398 66.8719 56.2263 66.9325 56.0654C66.993 55.9046 67.0855 55.7578 67.2044 55.6341L67.204 55.6335ZM49.7268 72.4261C49.9061 72.4816 50.0583 72.6025 50.1533 72.765C50.2483 72.9275 50.279 73.1195 50.2394 73.303C50.2345 73.3924 50.2104 73.4797 50.1688 73.5588C50.1272 73.6379 50.0691 73.7071 49.9984 73.7615C49.9277 73.816 49.8461 73.8545 49.759 73.8744C49.672 73.8944 49.5816 73.8953 49.4941 73.8771C49.3111 73.8253 49.1545 73.7054 49.0563 73.542C48.9581 73.3786 48.9258 73.184 48.966 72.9981C48.9733 72.9082 48.9995 72.8209 49.0429 72.742C49.0862 72.6631 49.1458 72.5944 49.2177 72.5404C49.2895 72.4863 49.372 72.4482 49.4598 72.4285C49.5475 72.4088 49.6385 72.408 49.7268 72.4261ZM51.5743 68.3802C51.504 68.603 51.3486 68.7885 51.1419 68.8963C50.9353 69.0041 50.6942 69.0255 50.471 68.9557C50.3611 68.9195 50.2592 68.862 50.1713 68.7865C50.0833 68.7109 50.0109 68.6188 49.9583 68.5153C49.9057 68.4119 49.8739 68.2992 49.8647 68.1837C49.8554 68.0681 49.869 67.952 49.9045 67.8419C49.9401 67.7318 49.9969 67.63 50.0718 67.5421C50.1468 67.4543 50.2383 67.3822 50.3411 67.3299C50.444 67.2777 50.5562 67.2463 50.6714 67.2376C50.7866 67.2289 50.9024 67.2431 51.0124 67.2793C51.1223 67.3132 51.2244 67.3689 51.3127 67.4431C51.4009 67.5173 51.4734 67.6085 51.5258 67.7112C51.5783 67.814 51.6096 67.9262 51.6179 68.0411C51.6263 68.156 51.6114 68.2713 51.5743 68.3802ZM70.9936 60.4492C70.8843 60.3577 70.7951 60.2445 70.7315 60.1169C70.6679 59.9892 70.6314 59.8499 70.6242 59.7076C70.617 59.5654 70.6392 59.4233 70.6896 59.2904C70.74 59.1575 70.8173 59.0367 70.9168 58.9356C71.1135 58.7183 71.3885 58.5886 71.6814 58.5748C71.9743 58.561 72.2614 58.6644 72.4795 58.8621C72.5897 58.954 72.6798 59.0677 72.744 59.1962C72.8082 59.3246 72.8452 59.4649 72.8525 59.6081C72.8598 59.7513 72.8374 59.8944 72.7866 60.0281C72.7358 60.1619 72.6578 60.2835 72.5574 60.3851C72.3589 60.6006 72.0832 60.7282 71.7902 60.7402C71.4973 60.7522 71.211 60.6476 70.9936 60.4492V60.4492ZM74.6948 63.5232C74.6088 63.4465 74.5392 63.353 74.4904 63.2485C74.4416 63.144 74.4146 63.0307 74.4111 62.9155C74.4076 62.8004 74.4276 62.6859 74.4699 62.579C74.5122 62.4721 74.5759 62.3752 74.6571 62.2941C74.7368 62.2092 74.8327 62.1412 74.9391 62.094C75.0455 62.0468 75.1603 62.0213 75.2768 62.0191C75.3934 62.017 75.5093 62.0381 75.6178 62.0813C75.7264 62.1245 75.8253 62.1889 75.909 62.2707C75.9955 62.3479 76.0654 62.4419 76.1144 62.547C76.1634 62.6522 76.1905 62.7662 76.1939 62.882C76.1973 62.9977 76.177 63.1129 76.1343 63.2203C76.0916 63.3277 76.0273 63.4251 75.9455 63.5064C75.8651 63.5903 75.7689 63.6574 75.6624 63.7037C75.5559 63.75 75.4412 63.7746 75.3249 63.7762C75.2086 63.7777 75.0931 63.7562 74.9849 63.7128C74.8768 63.6694 74.7782 63.6049 74.6948 63.5232V63.5232ZM78.2054 66.7195C78.0882 66.5912 78.0263 66.4219 78.0333 66.2485C78.0402 66.0752 78.1154 65.912 78.2424 65.7948C78.3002 65.7326 78.3703 65.6831 78.4483 65.6495C78.5263 65.6159 78.6104 65.5989 78.6955 65.5997C78.7805 65.6004 78.8645 65.6189 78.9422 65.6539C79.0199 65.6889 79.0897 65.7396 79.1469 65.8029C79.2053 65.8674 79.2503 65.9428 79.2795 66.0247C79.3086 66.1067 79.3212 66.1935 79.3166 66.2802C79.312 66.3669 79.2903 66.4518 79.2526 66.5298C79.215 66.6078 79.1622 66.6775 79.0974 66.7348C79.0401 66.7957 78.9708 66.8439 78.8938 66.8765C78.8169 66.9091 78.734 66.9253 78.6503 66.9241C78.5666 66.9229 78.484 66.9043 78.4077 66.8695C78.3314 66.8348 78.263 66.7845 78.2069 66.722L78.2054 66.7195Z" fill="#FB29FF"/>
</g>
<defs>
<clipPath id="clip0">
<rect width="70" height="87" fill="white" transform="translate(75.4196) rotate(60.0995)"/>
</clipPath>
</defs>
</svg>
