<svg width="503" height="503" viewBox="0 0 503 503" fill="none" xmlns="http://www.w3.org/2000/svg">
<g id="saturn-svgrepo-com 1">
<g id="Group">
<g id="sun">
<ellipse cx="250.289" cy="250.917" rx="25.1286" ry="24.9174" fill="#C4C4C4"/>
<ellipse cx="250.289" cy="250.917" rx="25.1286" ry="24.9174" fill="url(#paint0_radial)"/>
</g>
<g id="ellipse">
<path id="Vector" d="M293.603 233.304V233.303C291.983 229.394 286.027 227.899 276.379 228.971C272.938 229.355 269.175 230.052 265.207 231.028C265.205 231.029 265.202 231.03 265.199 231.03C258.825 232.599 251.922 234.89 244.968 237.771C238.287 240.537 231.673 243.84 225.882 247.336C213.562 254.773 204.969 263.089 207.418 269.002C208.698 272.09 212.854 273.66 219.211 273.66C223.715 273.66 229.333 272.864 235.806 271.271C235.808 271.27 235.81 271.27 235.812 271.269C235.819 271.267 235.825 271.266 235.832 271.264C234.669 270.412 233.584 269.462 232.587 268.426C227.894 269.459 223.746 270.003 220.442 270.003C216.091 270.003 213.191 269.074 212.387 267.126C210.119 261.632 225.388 250.117 246.49 241.407C260.11 235.785 272.832 232.705 280.751 232.705C280.751 232.705 280.752 232.705 280.752 232.705C285.103 232.705 288.002 233.635 288.806 235.582C290.22 239.009 284.812 244.777 275.424 250.746C275.426 250.882 275.43 251.017 275.43 251.153C275.43 251.319 275.428 251.485 275.424 251.65C275.395 252.789 275.273 253.903 275.103 255.001C275.115 254.994 275.126 254.986 275.138 254.98C288.881 246.662 295.785 238.574 293.603 233.304Z" fill="#FB29FF"/>
<path id="Vector_2" d="M247.019 242.686C224.138 252.131 212.173 262.978 213.667 266.598C214.197 267.882 216.666 268.619 220.442 268.619C223.545 268.619 227.319 268.141 231.525 267.252C230.727 266.312 229.998 265.311 229.344 264.258C229.335 264.26 229.327 264.261 229.318 264.263C229.317 264.263 229.317 264.263 229.317 264.263C222.207 265.644 219.124 265.012 218.824 264.286C218.63 263.814 219.522 261.48 225.963 257.085C231.574 253.255 239.468 249.157 248.188 245.545C256.908 241.932 265.387 239.249 272.064 237.989C274.997 237.434 277.142 237.242 278.683 237.242C281.167 237.242 282.082 237.742 282.202 238.033C282.502 238.756 280.771 241.382 274.77 245.433C274.764 245.437 274.759 245.441 274.754 245.444C275.041 246.648 275.241 247.884 275.345 249.148C284.188 243.393 288.454 238.358 287.526 236.111C286.996 234.826 284.527 234.089 280.752 234.089V232.705L280.751 234.089C272.669 234.09 260.059 237.304 247.019 242.686Z" fill="#FB29FF"/>
<path id="Vector_3" d="M231.556 267.246C231.546 267.248 231.536 267.25 231.525 267.252C227.319 268.141 223.545 268.619 220.442 268.619C216.667 268.619 214.197 267.882 213.667 266.598C212.173 262.978 224.138 252.131 247.019 242.686C260.059 237.304 272.669 234.09 280.751 234.089L280.752 232.705C280.752 232.705 280.751 232.705 280.751 232.705C272.832 232.705 260.11 235.785 246.49 241.407C225.388 250.117 210.119 261.632 212.387 267.126C213.191 269.074 216.091 270.003 220.442 270.003C223.746 270.003 227.894 269.46 232.587 268.427C232.594 268.425 232.6 268.424 232.607 268.422C232.242 268.043 231.897 267.647 231.556 267.246Z" fill="url(#paint1_linear)" fill-opacity="0.94"/>
<path id="Vector_4" d="M287.526 236.111C288.454 238.358 284.188 243.393 275.345 249.148C275.343 249.15 275.34 249.152 275.338 249.153C275.381 249.681 275.409 250.213 275.418 250.75C275.42 250.749 275.422 250.748 275.424 250.746C284.812 244.777 290.22 239.009 288.806 235.583C288.002 233.635 285.103 232.705 280.752 232.705V234.09C284.527 234.089 286.996 234.826 287.526 236.111Z" fill="url(#paint2_linear)" fill-opacity="0.94"/>
<path id="Vector_5" d="M293.603 233.304V233.303C291.983 229.394 286.027 227.899 276.379 228.971C272.938 229.355 269.175 230.052 265.207 231.028C265.205 231.029 265.202 231.03 265.199 231.03C258.825 232.599 251.922 234.89 244.968 237.771C238.287 240.537 231.673 243.84 225.882 247.336C213.562 254.773 204.969 263.089 207.418 269.002C208.698 272.09 212.854 273.66 219.211 273.66C223.715 273.66 229.333 272.864 235.806 271.271C235.808 271.27 235.81 271.27 235.812 271.269C235.819 271.267 235.825 271.266 235.832 271.264C234.669 270.412 233.584 269.462 232.587 268.426C227.894 269.459 223.746 270.003 220.442 270.003C216.091 270.003 213.191 269.074 212.387 267.126C210.119 261.632 225.388 250.117 246.49 241.407C260.11 235.785 272.832 232.705 280.751 232.705C280.751 232.705 280.752 232.705 280.752 232.705C285.103 232.705 288.002 233.635 288.806 235.582C290.22 239.009 284.812 244.777 275.424 250.746C275.426 250.882 275.43 251.017 275.43 251.153C275.43 251.319 275.428 251.485 275.424 251.65C275.395 252.789 275.273 253.903 275.103 255.001C275.115 254.994 275.126 254.986 275.138 254.98C288.881 246.662 295.785 238.574 293.603 233.304Z" fill="#FB29FF"/>
<path id="Vector_6" d="M247.019 242.686C224.138 252.131 212.173 262.978 213.667 266.598C214.197 267.882 216.666 268.619 220.442 268.619C223.545 268.619 227.319 268.14 231.525 267.252C230.727 266.312 229.998 265.311 229.344 264.258C229.335 264.26 229.327 264.261 229.318 264.263C229.317 264.263 229.317 264.263 229.317 264.263C222.207 265.644 219.124 265.012 218.824 264.286C218.63 263.814 219.522 261.48 225.963 257.085C231.574 253.255 239.468 249.157 248.188 245.545C256.908 241.932 265.387 239.248 272.064 237.988C274.997 237.434 277.142 237.242 278.683 237.242C281.167 237.242 282.082 237.742 282.202 238.033C282.502 238.756 280.771 241.382 274.77 245.433C274.764 245.437 274.759 245.441 274.754 245.444C275.041 246.647 275.241 247.884 275.345 249.148C284.188 243.393 288.454 238.358 287.526 236.111C286.996 234.826 284.527 234.089 280.752 234.089V232.705L280.751 234.089C272.669 234.09 260.059 237.304 247.019 242.686Z" fill="#FB29FF"/>
<path id="Vector_7" d="M231.556 267.246C231.546 267.248 231.536 267.25 231.525 267.252C227.319 268.141 223.545 268.619 220.442 268.619C216.667 268.619 214.197 267.882 213.667 266.598C212.173 262.978 224.138 252.131 247.019 242.686C260.059 237.304 272.669 234.09 280.751 234.089L280.752 232.705C280.752 232.705 280.751 232.705 280.751 232.705C272.832 232.705 260.11 235.785 246.49 241.407C225.388 250.117 210.119 261.632 212.387 267.126C213.191 269.074 216.091 270.003 220.442 270.003C223.746 270.003 227.894 269.46 232.587 268.427C232.594 268.425 232.6 268.424 232.607 268.422C232.242 268.043 231.897 267.647 231.556 267.246Z" fill="url(#paint3_linear)" fill-opacity="0.94"/>
<path id="Vector_8" d="M287.526 236.111C288.454 238.358 284.188 243.393 275.345 249.148C275.343 249.15 275.34 249.152 275.338 249.153C275.381 249.681 275.409 250.213 275.418 250.75C275.42 250.749 275.422 250.748 275.424 250.746C284.812 244.777 290.22 239.009 288.806 235.583C288.002 233.635 285.103 232.705 280.752 232.705V234.09C284.527 234.089 286.996 234.826 287.526 236.111Z" fill="url(#paint4_linear)" fill-opacity="0.94"/>
</g>
</g>
</g>
<defs>
<radialGradient id="paint0_radial" cx="0" cy="0" r="1" gradientUnits="userSpaceOnUse" gradientTransform="translate(261.481 267.599) rotate(-113.429) scale(27.6166 27.8506)">
<stop stop-color="#FA00FF"/>
<stop offset="1" stop-color="#3300FF"/>
</radialGradient>
<linearGradient id="paint1_linear" x1="246.458" y1="232.705" x2="246.458" y2="270.003" gradientUnits="userSpaceOnUse">
<stop stop-color="#0BDCBA"/>
<stop offset="1" stop-color="#0AFF22"/>
</linearGradient>
<linearGradient id="paint2_linear" x1="282.183" y1="232.705" x2="282.183" y2="250.75" gradientUnits="userSpaceOnUse">
<stop stop-color="#0BDCBA"/>
<stop offset="1" stop-color="#0AFF22"/>
</linearGradient>
<linearGradient id="paint3_linear" x1="246.458" y1="232.705" x2="246.458" y2="270.003" gradientUnits="userSpaceOnUse">
<stop stop-color="#0BDCBA"/>
<stop offset="1" stop-color="#0AFF22"/>
</linearGradient>
<linearGradient id="paint4_linear" x1="282.183" y1="232.705" x2="282.183" y2="250.75" gradientUnits="userSpaceOnUse">
<stop stop-color="#0BDCBA"/>
<stop offset="1" stop-color="#0AFF22"/>
</linearGradient>
</defs>
</svg>
